<?xml version="1.0" encoding="utf-8"?><svg id="コンポーネント_2_1" data-name="コンポーネント 2 – 1" xmlns="http://www.w3.org/2000/svg" xmlns:xlink="http://www.w3.org/1999/xlink" width="365.255" height="58.786" viewBox="0 0 365.255 58.786">
  <defs>
    <clipPath id="clip-path">
      <path id="パス_89" data-name="パス 89" d="M0-51.738H365.255v-58.786H0Z" transform="translate(0 110.524)" fill="none"/>
    </clipPath>
  </defs>
  <path id="パス_87" data-name="パス 87" d="M296.694-100.877h27.273V-95.8H296.694Z" transform="translate(-138.888 106.008)" fill="#2b2e34"/>
  <g id="グループ_13" data-name="グループ 13" clip-path="url(#clip-path)">
    <g id="グループ_12" data-name="グループ 12" transform="translate(140.839 5.133)">
      <path id="パス_88" data-name="パス 88" d="M-15.421-6.07H13.833V-.838h-32.19c.319-1.507-.791-1.348-.791-1.983-.638,2.538-2.819,8.244-2.819,8.244V33.649H-26.6V9.708l-6.34,4,.191-5.118a17.994,17.994,0,0,0,5.784-5.122,21.667,21.667,0,0,0,3.116-6.227,53.157,53.157,0,0,0,1.334-10.012l5.266-.2c-.314,2.7-1.265,6.817-.629,6.817Z" transform="translate(32.942 12.966)" fill="#2b2e34"/>
    </g>
  </g>
  <path id="パス_90" data-name="パス 90" d="M299.82-73.754h24.5v5.19h-24.5Z" transform="translate(-140.351 93.311)" fill="#2b2e34"/>
  <path id="パス_91" data-name="パス 91" d="M299.67-59.85h24.5v5.187h-24.5Z" transform="translate(-140.281 86.803)" fill="#2b2e34"/>
  <g id="グループ_14" data-name="グループ 14" transform="translate(157.714 33.675)">
    <path id="パス_92" data-name="パス 92" d="M-24.27-15.908V-33.983l-27.577.076v18ZM-46.493-29.289l16.671-.022v8.227l-16.671-.026Z" transform="translate(51.847 33.983)" fill="#2b2e34"/>
  </g>
  <g id="グループ_19" data-name="グループ 19" clip-path="url(#clip-path)">
    <g id="グループ_15" data-name="グループ 15" transform="translate(200.006 4.7)">
      <path id="パス_93" data-name="パス 93" d="M0-12.835v5.029H8.9v20.46s-2.4-.08-2.362-.715c.319-5.63.156-11.258.076-17.68L2.1-5.819C1.863,2.347,2.575,15.35.832,19.233h4.2l.551-1.9c3.014.426,6.935,1.645,10.941,1.9H46.734V14.476h-19.1c4.992-1.983,9.036-5.55,12.286-9.039.266-.288.771-.414.957-.013A17.007,17.007,0,0,0,46.735,11.7l.209-6.232c-1.192-.473-2.482-2.2-3.116-3.782l-.7-1.639c1.865-3.809,3.021-9.414,3.606-14.113H42.059c-.16,3.009-.112,5.43-2.015,7.966C38.657-7.955,37.6-17.446,37.6-17.446l5.732-.03v-2.934H44.6l1.938.11-2.7-6.974-4.627-.112,1.585,4.916H36.984v-4.913s-3.723-.078-4.681,0v4.915H23.728L23.649-.905,20.336.444l.043-3.767H14.487V-7.807h7.789v-5.029c.02.029-7.789,0-7.789,0v-4.479h5.851L20.3-22.468H14.521v-4.915H9.078v4.953H2.339v5.156H8.893v4.481ZM14.52,1.331h5.6l.015,4.149L32.231.762V-4.073L28.344-2.566V-17.474h3.645c.638,5.867,1.588,11.655,4.361,16.727C37.034.5,36.891.2,36.35.92c-2.376,3.17-7.212,7.452-12.367,7.93l.16,5.167-9.677.027Z" transform="translate(0 27.418)" fill="#2b2e34"/>
    </g>
    <g id="グループ_16" data-name="グループ 16" transform="translate(259.341 4.735)">
      <path id="パス_94" data-name="パス 94" d="M0-11.163v4.545l2.377-.026L5.225.112.105.254.094,4.641l8.529.053V8.446l-7.566.041v5.035H8.581v9.251H13.7V13.351l7.5-.041V8.341l-7.5.053V4.538l8.657.012V.269L17.684.113,19.5-6.561H22l.043-4.6-8.271.263.027-2.814,7.488-.222-.039-4.943H13.7v-4.967H8.592l.053,5.019H.949v4.918h7.7l-.014,2.746Zm14.794,4.6L13,.255,10.122.112C10.122.153,7.9-6.562,7.9-6.562Z" transform="translate(0 23.846)" fill="#2b2e34"/>
    </g>
    <g id="グループ_17" data-name="グループ 17" transform="translate(282.444 4.735)">
      <path id="パス_95" data-name="パス 95" d="M-4.367-41.121V-70.64h1.7c.28,1.071,2.1,11.338,5.908,15.779A18.5,18.5,0,0,1-3.177-47.2l-.213,6.128c6-2.853,9.064-9.407,9.064-9.407s2.646,6.712,8.67,9.251l-.166-5.75a50.928,50.928,0,0,1-5.436-8.1c2.434-1.27,6.238-11.577,5.6-20.3H-4.18l-.027-7.715H9.8c-.632,2.116-1.688,2.434-6.552,2.221v4.442c12.472-.213,10.359-2.116,11.1-6.266v-5.152H-9.249l-.08,46.619ZM8.393-70.784C8.5-68.35,7.684-62.477,5.78-60.572c-1.9-2.536-3.592-6.976-3.38-10.042Z" transform="translate(9.329 87.843)" fill="#2b2e34"/>
    </g>
    <g id="グループ_18" data-name="グループ 18" transform="translate(318.505 5.22)">
      <path id="パス_96" data-name="パス 96" d="M-9.918-31.332c-3.792,2.81-7.649,5.744-11.268,6.27V-20.3c7.11-1.48,14.986-5.31,19.612-15.591,4.392,3.2,6.794,8.013,8,10.834v-8.484a29.508,29.508,0,0,0-7.917-7.371l-.085-2.707,7.789-.06,0-5.057H-1.493v-7.74h7.18l-.029-5.289H-8.184a32.543,32.543,0,0,0,1.715-5.164l-4.755.009c-1.9,5.709-6.181,13.162-9.671,14.59l-.036,6.1s2.206-1.125,3.364-1.656v4.318H-6.548s1.5,8.639-3.37,12.245m3.426-17.585H-16.746c3.17-2.149,5.311-5.11,7.083-7.329h3.172Z" transform="translate(21.186 66.932)" fill="#2b2e34"/>
    </g>
  </g>
  <g id="グループ_20" data-name="グループ 20" transform="translate(347.497 9.038)">
    <path id="パス_98" data-name="パス 98" d="M0,0,.077,42.81H17.731L17.758,0ZM4.811,5.278h8.137V37.212H4.837Z" fill="#2b2e34"/>
  </g>
  <g id="グループ_26" data-name="グループ 26" clip-path="url(#clip-path)">
    <g id="グループ_21" data-name="グループ 21" transform="translate(82.613 7.087)">
      <path id="パス_99" data-name="パス 99" d="M-.639-3.595H2.105V-7.679H4.86V-3.6H6.786V-.944H4.86V.744A29.792,29.792,0,0,0,7.253,3.186V1.755h4.953V-1.2H9.928Q9.506-.1,8.99,1.026A8.285,8.285,0,0,0,6.505.112,29.343,29.343,0,0,0,8.709-6.2l2.584.563c-.126.585-.285,1.166-.474,1.759h1.388V-7.586h2.93v3.706h3.947V-1.2H15.136V1.754H20.09V4.342h-4.06A31.993,31.993,0,0,0,21.1,9.2a6.7,6.7,0,0,0-1.714,2.372,24.69,24.69,0,0,1-4.25-4.133V13.49h-2.93V7.226a20.99,20.99,0,0,1-5.1,4.623A9.429,9.429,0,0,0,5.326,9.385a19.572,19.572,0,0,0,5.845-5.047H7.253V3.822A10.016,10.016,0,0,0,6.2,5.888c-.42-.439-.87-.948-1.338-1.525v9.22H2.1V5.3Q1.189,7.272.083,9.288A10.085,10.085,0,0,0-1.366,6.355,30.207,30.207,0,0,0,2.1-.754V-.943H-.641Z" transform="translate(1.366 7.679)" fill="#2b2e34"/>
    </g>
    <g id="グループ_22" data-name="グループ 22" transform="translate(107.109 6.984)">
      <path id="パス_100" data-name="パス 100" d="M-.048-3.511H11.244q-.056-1.782-.053-3.8h3.032q0,2.065.044,3.8h2.513a19.455,19.455,0,0,0-2.321-1.973L16.028-7.5a24.479,24.479,0,0,1,3.1,2.579L17.762-3.511h2.563V-.858H14.336a41.918,41.918,0,0,0,.4,4.34A20.46,20.46,0,0,0,16.147,8.62c.546,1.223,1.022,1.9,1.431,2.043.39-.171.664-.939.821-2.3a16.643,16.643,0,0,0,2.841,1.524,9.329,9.329,0,0,1-1.528,3.355,2.521,2.521,0,0,1-1.5.8,4.361,4.361,0,0,1-2.441-1.081,7.827,7.827,0,0,1-2.2-2.838,21.261,21.261,0,0,1-1.717-5.913q-.328-2.115-.493-5.069H-.048ZM.817,1.818h9.8V4.469H7.356V9.253q2.015-.326,4.272-.7v2.743L.553,13.315-.1,10.192c1.345-.126,2.824-.3,4.43-.517V4.467H.816Z" transform="translate(0.103 7.5)" fill="#2b2e34"/>
    </g>
    <g id="グループ_23" data-name="グループ 23" transform="translate(82.693 29.469)">
      <path id="パス_101" data-name="パス 101" d="M-9.418-3.1A45.313,45.313,0,0,0-5.08.942h-8.378A55.953,55.953,0,0,0-9.415-3.1m-10.7,5.093a9.473,9.473,0,0,1,1.453,2.463,21.326,21.326,0,0,0,3.4-2.062V3.589H-3.526V2.112A21.462,21.462,0,0,0,.39,4.452a8.262,8.262,0,0,1,1.6-2.745A24.1,24.1,0,0,1-3.766-1.649,34.011,34.011,0,0,1-7.591-5.167c.093-.126.195-.257.305-.4l-2.931-1.056a32.217,32.217,0,0,1-9.9,8.616m1.1,6.057H-13.5l-1.734,4.128c-1.053.08-2.059.132-3.032.166l.517,2.933q7.441-.679,14.1-1.831.7.964,1.336,2.017L.155,13.727A24.8,24.8,0,0,0-5.08,8.05l-2.206,1.5A16.078,16.078,0,0,1-5.431,11.31q-3.568.4-6.711.656l1.783-3.916H.879V5.467H-19.016Z" transform="translate(20.118 6.623)" fill="#2b2e34"/>
    </g>
    <g id="グループ_24" data-name="グループ 24" transform="translate(106.158 29.923)">
      <path id="パス_102" data-name="パス 102" d="M-3.04,0H-.2V3.45H1.777l.28-.166,1.67,1.458A28.143,28.143,0,0,1,.555,9.6a15.6,15.6,0,0,0,3.053,3.05,6.2,6.2,0,0,0-1.739,2.3,13.844,13.844,0,0,1-1.8-1.924c-.11-.129-.213-.251-.308-.377v8.614H-2.991V13.353A19.507,19.507,0,0,1-5.18,15.138a6.4,6.4,0,0,0-1.315-2.8A15.928,15.928,0,0,0-2.759,9.1a21.746,21.746,0,0,0,2.38-3h-5.27V3.449H-3.04ZM2.874,7.062H7.053V.188h3.026V7.062H14.7V9.811H10.081v7.93h5.259v2.841H1.233V17.741H7.055V9.811H2.874Z" transform="translate(6.495)" fill="#2b2e34"/>
    </g>
    <g id="グループ_25" data-name="グループ 25" transform="translate(0 51.501)">
      <path id="パス_103" data-name="パス 103" d="M-2.363-2.856l-.656-.213a3.391,3.391,0,0,1-.827-.356A.8.8,0,0,1-4.1-4.089a1.244,1.244,0,0,1,.229-.741.843.843,0,0,1,.738-.307.943.943,0,0,1,.9.481,2.178,2.178,0,0,1,.19.8l.007.073h.768v-.081a2.313,2.313,0,0,0-.543-1.7A1.825,1.825,0,0,0-3.128-6.1a1.534,1.534,0,0,0-1.305.619,2.528,2.528,0,0,0-.457,1.548A1.759,1.759,0,0,0-4.418-2.6a2.473,2.473,0,0,0,.911.46l.638.205a1.959,1.959,0,0,1,.727.377,1,1,0,0,1,.217.73.953.953,0,0,1-.519.946,1.322,1.322,0,0,1-.614.14A1.041,1.041,0,0,1-4.092-.372a2.419,2.419,0,0,1-.18-.9v-.08h-.771v.083A2.786,2.786,0,0,0-4.536.507,1.712,1.712,0,0,0-3.1,1.183,1.914,1.914,0,0,0-1.108-.652a1.9,1.9,0,0,0-.015-.33,2.007,2.007,0,0,0-.468-1.428,1.805,1.805,0,0,0-.772-.447" transform="translate(5.048 6.1)" fill="#2b2e34"/>
    </g>
  </g>
  <g id="グループ_27" data-name="グループ 27" transform="translate(5.304 51.671)">
    <path id="パス_105" data-name="パス 105" d="M-2.755,0V2.795h-2.3V0h-.829V6.927h.829V3.751h2.3V6.927h.831V0Z" transform="translate(5.885)" fill="#2b2e34"/>
  </g>
  <path id="パス_106" data-name="パス 106" d="M20.487-6.443h.831v-6.924h-.831Z" transform="translate(-9.59 65.043)" fill="#2b2e34"/>
  <g id="グループ_28" data-name="グループ 28" transform="translate(13.245 51.671)">
    <path id="パス_107" data-name="パス 107" d="M-2.8,0l0,5.164L-5.052.051-5.074,0h-.9V6.927h.789V1.762l2.3,5.165h.873V0Z" transform="translate(5.978)" fill="#2b2e34"/>
  </g>
  <g id="グループ_29" data-name="グループ 29" transform="translate(18.755 51.671)">
    <path id="パス_108" data-name="パス 108" d="M0,0V6.927H3.736V5.969H.8V3.839H3.48V2.882H.8V.99H3.693V0Z" fill="#2b2e34"/>
  </g>
  <g id="グループ_30" data-name="グループ 30" transform="translate(23.381 51.671)">
    <path id="パス_109" data-name="パス 109" d="M0,0V.962H1.623V6.928h.831V.962H4.076V0Z" fill="#2b2e34"/>
  </g>
  <g id="グループ_33" data-name="グループ 33" clip-path="url(#clip-path)">
    <g id="グループ_31" data-name="グループ 31" transform="translate(28.315 51.501)">
      <path id="パス_110" data-name="パス 110" d="M-2.366-2.856l-.656-.213a3.457,3.457,0,0,1-.829-.356.8.8,0,0,1-.254-.665,1.236,1.236,0,0,1,.229-.741.833.833,0,0,1,.736-.307.953.953,0,0,1,.907.483,2.132,2.132,0,0,1,.188.8l.007.073h.766v-.083a2.308,2.308,0,0,0-.541-1.7A1.8,1.8,0,0,0-3.129-6.1a1.539,1.539,0,0,0-1.309.622,2.522,2.522,0,0,0-.456,1.542A1.759,1.759,0,0,0-4.421-2.6a2.5,2.5,0,0,0,.912.46l.632.205a1.941,1.941,0,0,1,.729.372,1.011,1.011,0,0,1,.217.732.95.95,0,0,1-.52.946,1.309,1.309,0,0,1-.612.14A1.041,1.041,0,0,1-4.1-.376a2.364,2.364,0,0,1-.178-.9l0-.08H-5.05v.083A2.8,2.8,0,0,0-4.544.5a1.718,1.718,0,0,0,1.436.675A1.911,1.911,0,0,0-1.114-.644,1.928,1.928,0,0,0-1.13-.985,2.017,2.017,0,0,0-1.6-2.413a1.822,1.822,0,0,0-.769-.443" transform="translate(5.055 6.1)" fill="#2b2e34"/>
    </g>
    <g id="グループ_32" data-name="グループ 32" transform="translate(33.661 51.671)">
      <path id="パス_111" data-name="パス 111" d="M-2.76-3.75a3.342,3.342,0,0,1-.156,1.136,1.032,1.032,0,0,1-1.051.745.926.926,0,0,1-.9-.683,3.273,3.273,0,0,1-.19-1.2V-8.01h-.831v3.883a6.121,6.121,0,0,0,.243,1.948A1.821,1.821,0,0,0-3.37-.982a1.822,1.822,0,0,0,1.2-1.2,6.092,6.092,0,0,0,.244-1.948V-8.01h-.831Z" transform="translate(5.896 8.01)" fill="#2b2e34"/>
    </g>
  </g>
  <g id="グループ_34" data-name="グループ 34" transform="translate(41.563 51.671)">
    <path id="パス_113" data-name="パス 113" d="M-2.758,0V2.795h-2.3V0h-.83V6.927h.83V3.751h2.3V6.927h.83V0Z" transform="translate(5.891)" fill="#2b2e34"/>
  </g>
  <g id="グループ_37" data-name="グループ 37" clip-path="url(#clip-path)">
    <g id="グループ_35" data-name="グループ 35" transform="translate(46.759 51.499)">
      <path id="パス_114" data-name="パス 114" d="M-2.122,0A2.06,2.06,0,0,0-4.037,1.292,5.311,5.311,0,0,0-4.53,3.669a5.129,5.129,0,0,0,.577,2.546A2.06,2.06,0,0,0-2.129,7.282a2.087,2.087,0,0,0,1.9-1.219A5.275,5.275,0,0,0,.332,3.518,4.958,4.958,0,0,0-.156,1.189,2.094,2.094,0,0,0-2.122,0m.061,6.31A1.276,1.276,0,0,1-3.3,5.583a4,4,0,0,1-.391-1.851,3.851,3.851,0,0,1,.454-2.074A1.312,1.312,0,0,1-2.088.974,1.28,1.28,0,0,1-.946,1.66,3.6,3.6,0,0,1-.517,3.53,4.884,4.884,0,0,1-.89,5.492a1.207,1.207,0,0,1-1.171.818Z" transform="translate(4.533 0.003)" fill="#2b2e34"/>
    </g>
    <g id="グループ_36" data-name="グループ 36" transform="translate(52.641 51.501)">
      <path id="パス_115" data-name="パス 115" d="M-3.174-3.985A3.878,3.878,0,0,1-3.461-2.93,1.081,1.081,0,0,1-4.468-2.2a1.157,1.157,0,0,1-1.087-.691,4.1,4.1,0,0,1-.38-1.89A4.159,4.159,0,0,1-5.515-6.89a1.2,1.2,0,0,1,1.06-.661,1.026,1.026,0,0,1,.832.351,2.061,2.061,0,0,1,.408.992l.012.068h.791l-.005-.086A2.912,2.912,0,0,0-2.989-7.8,1.747,1.747,0,0,0-4.465-8.51,1.94,1.94,0,0,0-6.206-7.432a4.933,4.933,0,0,0-.571,2.5,4.782,4.782,0,0,0,.76,2.963,1.809,1.809,0,0,0,1.465.745,1.839,1.839,0,0,0,1.609-.907,3.816,3.816,0,0,0,.571-1.831l.007-.087h-.8Z" transform="translate(6.781 8.512)" fill="#2b2e34"/>
    </g>
  </g>
  <g id="グループ_38" data-name="グループ 38" transform="translate(58.338 51.671)">
    <path id="パス_117" data-name="パス 117" d="M-2.759,0V2.795h-2.3V0h-.831V6.927h.831V3.751h2.3V6.927h.83V0Z" transform="translate(5.894)" fill="#2b2e34"/>
  </g>
  <path id="パス_118" data-name="パス 118" d="M120.2-6.443h.83v-6.924h-.83Z" transform="translate(-56.269 65.043)" fill="#2b2e34"/>
  <g id="グループ_46" data-name="グループ 46" clip-path="url(#clip-path)">
    <g id="グループ_39" data-name="グループ 39" transform="translate(31.711 9.709)">
      <path id="パス_119" data-name="パス 119" d="M-3.265-3.721a9.5,9.5,0,0,1,13.855,5.6l2.819-.873A12.446,12.446,0,0,0-6.974-4.651a33.275,33.275,0,0,1,3.524.87l.183.059" transform="translate(6.974 7.95)" fill="#2b2e34"/>
    </g>
    <g id="グループ_40" data-name="グループ 40" transform="translate(19.8 0)">
      <path id="パス_120" data-name="パス 120" d="M-17.905,0A22.212,22.212,0,0,0-38.25,13.357a19.809,19.809,0,0,1,3.692-.745,19.2,19.2,0,0,1,26.2-7.1A19.2,19.2,0,0,1,.5,16.708l2.843-.863A22.217,22.217,0,0,0-17.905,0" transform="translate(38.25)" fill="#2b2e34"/>
    </g>
    <g id="グループ_41" data-name="グループ 41" transform="translate(25.665 4.737)">
      <path id="パス_121" data-name="パス 121" d="M-3.175-6.952a14.408,14.408,0,0,1,24.7,5.486L24.4-2.379A17.425,17.425,0,0,0-6.782-7.117a27.892,27.892,0,0,1,3.607.164" transform="translate(6.782 14.852)" fill="#2b2e34"/>
    </g>
    <g id="グループ_42" data-name="グループ 42" transform="translate(11.089 30.339)">
      <path id="パス_122" data-name="パス 122" d="M-14.227-5.047a9.393,9.393,0,0,1-4.216.992,9.542,9.542,0,0,1-9.085-6.727l-2.865.851a12.6,12.6,0,0,0,11.95,8.837,12.4,12.4,0,0,0,7.983-2.9c-.9-.2-1.8-.426-2.706-.705-.358-.114-.711-.229-1.064-.347" transform="translate(30.393 10.782)" fill="#2b2e34"/>
    </g>
    <g id="グループ_43" data-name="グループ 43" transform="translate(6.34 31.786)">
      <path id="パス_123" data-name="パス 123" d="M-14.7-9.022A14.48,14.48,0,0,1-28.585-19.273l-2.809.854A17.439,17.439,0,0,0-9.631-6.815,17.436,17.436,0,0,0-.617-13.226a29.933,29.933,0,0,1-3.631-.266A14.434,14.434,0,0,1-14.7-9.02" transform="translate(31.394 19.273)" fill="#2b2e34"/>
    </g>
    <g id="グループ_44" data-name="グループ 44" transform="translate(1.821 33.139)">
      <path id="パス_124" data-name="パス 124" d="M-18.674-12A19.22,19.22,0,0,1-37.062-25.641l-2.829.883A22.175,22.175,0,0,0-12.22-10,22.175,22.175,0,0,0,1.32-21.632a21,21,0,0,1-3.723.611A19.2,19.2,0,0,1-18.675-12" transform="translate(39.891 25.641)" fill="#2b2e34"/>
    </g>
    <g id="グループ_45" data-name="グループ 45" transform="translate(12.524 12.473)">
      <path id="パス_125" data-name="パス 125" d="M-8.164-13.587l-2.823.893A22.431,22.431,0,0,1-12-19.321a22.034,22.034,0,0,1,1.831-8.82c-3.521,1.088-6.087,3.138-6.955,5.977-1.849,6.013,4.548,13.35,14.41,16.74a9.513,9.513,0,0,0,5.286-8.51,10.2,10.2,0,0,0-.444-2.783l2.81-.858a12.823,12.823,0,0,1,.6,3.641A12.442,12.442,0,0,1,1.055-4.371c.831.18,1.655.324,2.465.437a14.424,14.424,0,0,0,4.025-10,14,14,0,0,0-.656-4.247l2.843-.856a17.047,17.047,0,0,1,.775,5.1A17.354,17.354,0,0,1,7.155-3.665q1.122.01,2.192-.074a19.082,19.082,0,0,0,2.938-10.194,19.409,19.409,0,0,0-.843-5.645l2.845-.843a22.5,22.5,0,0,1,.961,6.489,22.012,22.012,0,0,1-2.181,9.583C16.961-5.37,19.814-7.5,20.748-10.53c1.9-6.187-4.938-13.784-15.293-17.029a9.506,9.506,0,0,0-4.777,8.24A10.034,10.034,0,0,0,1.11-16.4l-2.819.851a12.715,12.715,0,0,1-.578-3.765,12.43,12.43,0,0,1,4.035-9.17c-.822-.156-1.639-.28-2.439-.372a14.409,14.409,0,0,0-3.6,9.541,15.678,15.678,0,0,0,.615,4.357l-2.79.866a17.905,17.905,0,0,1-.79-5.223A17.347,17.347,0,0,1-4.3-29.025c-.745.015-1.47.064-2.173.14A19.1,19.1,0,0,0-9.035-19.32a19.513,19.513,0,0,0,.871,5.734" transform="translate(17.44 29.025)" fill="#2c9ad2"/>
    </g>
  </g>
</svg>
